<?xml version="1.0" encoding="utf-8"?>
<!-- Generator: Adobe Illustrator 24.0.1, SVG Export Plug-In . SVG Version: 6.00 Build 0)  -->
<svg version="1.1" id="Layer_1" xmlns="http://www.w3.org/2000/svg" xmlns:xlink="http://www.w3.org/1999/xlink" x="0px" y="0px"
	 viewBox="0 0 100 100" style="enable-background:new 0 0 100 100;" xml:space="preserve">
<style type="text/css">
	.st0{fill:#F1E6EB;}
	.st1{fill:none;stroke:#231F20;stroke-width:2;stroke-linecap:round;stroke-linejoin:round;stroke-miterlimit:10;}
	.st2{fill:none;stroke:#231F20;stroke-width:2;stroke-linecap:round;stroke-linejoin:round;}
	.st3{fill:none;stroke:#231F20;stroke-width:2;stroke-linejoin:round;}
</style>
<g id="CONTAINS_RECYCLED_MATERIALS">
	<g>
		<path class="st0" d="M50,6.4C26,6.4,6.5,25.9,6.5,49.9S26,93.4,50,93.4S93.5,74,93.5,49.9S74,6.4,50,6.4"/>
	</g>
	<g>
		<g id="GLUTEN-FREE_5_">
			<circle id="VEGAN_9_" class="st1" cx="50" cy="50" r="48.6"/>
		</g>
	</g>
	<g>
		<g>
			<path class="st2" d="M72.2,83.5V48.7c0-19-13.1-22-13.1-22v-14H50h-9v14c0,0-13.1,3-13.1,22v34.8"/>
		</g>
		<line class="st2" x1="41.4" y1="20.2" x2="58.6" y2="20.2"/>
		<g>
			<line class="st3" x1="28.3" y1="41.7" x2="71.7" y2="41.7"/>
		</g>
		<g>
			<polyline class="st2" points="45,53.9 45,57.9 48.5,56.2 			"/>
			<polyline class="st2" points="41.5,72.8 44.9,74.8 41.6,77 			"/>
			<g>
				<polyline class="st2" points="56.9,60.6 50.1,49 45.2,57.8 				"/>
				<polyline class="st2" points="41.8,62.8 34.9,74.8 44.7,74.8 				"/>
				<polyline class="st2" points="50.9,74.7 65.1,74.7 59.7,65.8 				"/>
			</g>
			<polyline class="st2" points="59.8,70.2 59.5,65.6 63.3,67.9 			"/>
		</g>
	</g>
</g>
</svg>
