<?xml version="1.0" encoding="utf-8"?>
<!-- Generator: Adobe Illustrator 24.0.1, SVG Export Plug-In . SVG Version: 6.00 Build 0)  -->
<svg version="1.1" id="Layer_1" xmlns="http://www.w3.org/2000/svg" xmlns:xlink="http://www.w3.org/1999/xlink" x="0px" y="0px"
	 viewBox="0 0 100 100" style="enable-background:new 0 0 100 100;" xml:space="preserve">
<style type="text/css">
	.st0{fill:#E8E2EB;}
	.st1{fill:none;stroke:#231F20;stroke-width:2;stroke-linecap:round;stroke-linejoin:round;stroke-miterlimit:10;}
</style>
<g id="GLUTEN-FREE">
	<g>
		<path class="st0" d="M50,6.5C26,6.5,6.5,26,6.5,50S26,93.5,50,93.5S93.5,74,93.5,50S74,6.5,50,6.5"/>
	</g>
	<circle id="VEGAN_14_" class="st1" cx="50" cy="50" r="48.6"/>
	<path class="st1" d="M50.3,44.4c0,0,8.9-6,8.9-17.6S50.3,9.2,50.3,9.2s-8.9,6-8.9,17.6S50.3,44.4,50.3,44.4z"/>
	<g>
		<path class="st1" d="M50.1,61.7c0,0,2-10.5-6.2-18.7s-18.7-6.2-18.7-6.2s-2,10.5,6.2,18.7S50.1,61.7,50.1,61.7z"/>
		<path class="st1" d="M50.5,61.7c0,0-2-10.5,6.2-18.7s18.7-6.2,18.7-6.2s2,10.5-6.2,18.7S50.5,61.7,50.5,61.7z"/>
	</g>
	<g>
		<path class="st1" d="M50.1,87c0,0,2-10.5-6.2-18.7s-18.7-6.2-18.7-6.2s-2,10.5,6.2,18.7S50.1,87,50.1,87z"/>
		<path class="st1" d="M50.5,87c0,0-2-10.5,6.2-18.7s18.7-6.2,18.7-6.2s2,10.5-6.2,18.7S50.5,87,50.5,87z"/>
	</g>
	<line class="st1" x1="27.2" y1="92.9" x2="72.8" y2="7.1"/>
</g>
</svg>
